<svg xmlns="http://www.w3.org/2000/svg" aria-hidden="true" viewBox="0 0 288 16" shape-rendering="crispEdges"><g data-icon="star"><path fill="#2E2418" d="M7 0h2v1h-2zM6 1h1v2h-1zM9 1h1v2h-1zM5 3h1v1h-1zM10 3h1v1h-1zM0 4h6v1h-6zM10 4h6v1h-6zM0 5h1v1h-1zM15 5h1v1h-1zM1 6h1v1h-1zM14 6h1v1h-1zM2 7h1v1h-1zM13 7h1v1h-1zM3 8h1v2h-1zM12 8h1v2h-1zM2 10h1v2h-1zM13 10h1v2h-1zM1 12h1v2h-1zM7 12h2v1h-2zM14 12h1v2h-1zM6 13h4v1h-4zM1 14h6v1h-6zM9 14h6v1h-6z"/><path fill="#E3C57E" d="M7 1h1v2h-1zM6 3h2v2h-2zM1 5h7v1h-7zM2 6h6v1h-6zM3 7h5v1h-5zM4 8h4v2h-4zM3 10h5v2h-5zM2 12h5v1h-5zM2 13h4v1h-4z"/><path fill="#B08F48" d="M8 1h1v2h-1zM8 3h2v2h-2zM8 5h7v1h-7zM8 6h6v1h-6zM8 7h5v1h-5zM8 8h4v2h-4zM8 10h5v2h-5zM9 12h5v1h-5zM10 13h4v1h-4z"/></g><g data-icon="lock"><path fill="#2E2418" d="M24 4h6v1h-6zM23 5h1v4h-1zM30 5h1v4h-1zM22 9h10v1h-10zM22 10h1v5h-1zM31 10h1v5h-1zM26 11h2v3h-2zM22 15h10v1h-10z"/><path fill="#C9B79A" d="M24 5h6v1h-6zM24 6h2v1h-2zM28 6h2v1h-2zM24 7h1v2h-1zM29 7h1v2h-1z"/><path fill="#E3C57E" d="M23 10h1v5h-1z"/><path fill="#D8B66A" d="M24 10h6v1h-6zM24 11h2v3h-2zM28 11h2v3h-2zM24 14h6v1h-6z"/><path fill="#B08F48" d="M30 10h1v5h-1z"/></g><g data-icon="sprout"><path fill="#2E2418" d="M41 1h4v1h-4zM36 2h2v1h-2zM40 2h1v1h-1zM45 2h1v1h-1zM34 3h2v1h-2zM38 3h2v1h-2zM46 3h1v3h-1zM33 4h1v3h-1zM39 4h1v2h-1zM40 6h6v1h-6zM34 7h2v1h-2zM38 7h2v1h-2zM41 7h1v3h-1zM36 8h3v1h-3zM38 9h1v1h-1zM37 10h2v1h-2zM41 10h2v1h-2zM35 11h2v1h-2zM38 11h1v2h-1zM41 11h1v2h-1zM43 11h2v1h-2zM34 12h1v2h-1zM45 12h1v2h-1zM39 13h2v1h-2zM35 14h1v1h-1zM44 14h1v1h-1zM36 15h8v1h-8z"/><path fill="#8FA56E" d="M43 2h2v1h-2zM37 3h1v1h-1zM42 3h3v1h-3zM36 4h3v1h-3zM41 4h3v1h-3zM35 5h4v1h-4zM40 5h3v1h-3zM34 6h4v1h-4zM36 7h1v1h-1zM40 7h1v1h-1zM39 8h2v5h-2z"/><path fill="#9C6B42" d="M37 11h1v1h-1zM35 12h3v2h-3zM36 14h1v1h-1z"/><path fill="#5A3E2B" d="M42 12h3v1h-3zM41 13h4v1h-4zM40 14h4v1h-4z"/><path fill="#8A5A34" d="M42 11h1v1h-1zM38 13h1v1h-1zM37 14h3v1h-3z"/><path fill="#6F8F55" d="M45 3h1v1h-1zM44 4h2v1h-2zM43 5h3v1h-3zM38 6h2v1h-2zM37 7h1v1h-1z"/><path fill="#B5C79C" d="M41 2h2v1h-2zM36 3h1v1h-1zM40 3h2v1h-2zM34 4h2v1h-2zM40 4h1v1h-1zM34 5h1v1h-1z"/></g><g data-icon="hammer"><path fill="#2E2418" d="M51 1h10v1h-10zM50 2h1v5h-1zM53 2h1v5h-1zM61 2h1v5h-1zM51 7h10v1h-10zM54 8h1v7h-1zM57 8h1v7h-1zM55 15h2v1h-2z"/><path fill="#C9B79A" d="M56 2h4v1h-4zM55 3h4v1h-4zM54 4h4v1h-4zM54 5h3v1h-3zM54 6h2v1h-2z"/><path fill="#A8957A" d="M60 2h1v1h-1zM59 3h2v1h-2zM58 4h3v1h-3zM57 5h4v1h-4zM56 6h5v1h-5z"/><path fill="#A07A52" d="M56 8h1v1h-1zM55 9h2v3h-2zM55 12h1v1h-1z"/><path fill="#7A4E2D" d="M56 12h1v1h-1zM55 13h2v2h-2z"/><path fill="#C8A27A" d="M55 8h1v1h-1z"/><path fill="#E9DCC6" d="M51 2h2v5h-2zM54 2h2v1h-2zM54 3h1v1h-1z"/></g><g data-icon="rocket"><path fill="#2E2418" d="M71 0h2v1h-2zM70 1h1v1h-1zM73 1h1v1h-1zM69 2h1v10h-1zM74 2h1v10h-1zM66 9h1v1h-1zM77 9h1v1h-1zM65 10h1v2h-1zM78 10h1v2h-1zM65 12h5v1h-5zM74 12h5v1h-5zM70 13h1v1h-1zM74 13h1v2h-1zM71 14h1v1h-1zM72 15h2v1h-2z"/><path fill="#C25A6A" d="M71 1h1v1h-1zM70 2h2v2h-2zM67 9h2v1h-2zM66 10h3v2h-3z"/><path fill="#7B2D3B" d="M72 1h1v1h-1zM72 2h2v2h-2zM75 9h2v1h-2zM75 10h3v2h-3z"/><path fill="#F4EDE0" d="M70 4h2v2h-2zM70 6h1v2h-1zM70 8h2v5h-2z"/><path fill="#C9B79A" d="M72 4h1v2h-1zM72 8h1v5h-1z"/><path fill="#A8957A" d="M73 4h1v9h-1z"/><path fill="#9DC1B4" d="M71 6h2v2h-2z"/><path fill="#E3C57E" d="M71 13h2v1h-2zM72 14h1v1h-1z"/><path fill="#D8B66A" d="M73 13h1v2h-1z"/></g><g data-icon="wrench"><path fill="#2E2418" d="M89 0h4v1h-4zM88 1h1v1h-1zM93 1h1v1h-1zM87 2h1v5h-1zM91 2h2v1h-2zM91 3h1v1h-1zM93 3h1v1h-1zM91 4h2v1h-2zM94 4h1v3h-1zM86 7h1v1h-1zM88 7h1v1h-1zM93 7h1v1h-1zM85 8h1v1h-1zM89 8h4v1h-4zM84 9h1v1h-1zM88 9h1v1h-1zM83 10h1v1h-1zM87 10h1v1h-1zM82 11h1v1h-1zM86 11h1v1h-1zM81 12h1v1h-1zM85 12h1v1h-1zM82 13h1v1h-1zM84 13h1v1h-1zM83 14h1v1h-1z"/><path fill="#C9B79A" d="M92 1h1v1h-1zM90 3h1v1h-1zM89 4h2v1h-2zM88 5h4v1h-4zM88 6h3v1h-3zM87 7h1v1h-1zM89 7h1v1h-1zM86 8h3v1h-3zM85 9h3v1h-3zM84 10h3v1h-3zM83 11h3v1h-3zM82 12h3v1h-3zM83 13h1v1h-1z"/><path fill="#A8957A" d="M93 4h1v1h-1zM92 5h2v1h-2zM91 6h3v1h-3zM90 7h3v1h-3z"/><path fill="#E9DCC6" d="M89 1h3v1h-3zM88 2h3v1h-3zM88 3h2v1h-2zM88 4h1v1h-1z"/></g><g data-icon="shield"><path fill="#2E2418" d="M98 1h11v1h-11zM97 2h1v6h-1zM109 2h1v7h-1zM98 8h1v1h-1zM99 9h1v1h-1zM108 9h1v1h-1zM100 10h1v2h-1zM107 10h1v2h-1zM101 12h1v1h-1zM106 12h1v1h-1zM102 13h1v1h-1zM105 13h1v1h-1zM103 14h2v1h-2z"/><path fill="#9DC1B4" d="M106 2h3v1h-3zM105 3h4v3h-4zM107 6h1v1h-1zM100 8h3v2h-3zM105 8h1v1h-1zM101 10h2v2h-2z"/><path fill="#C9DDD3" d="M98 2h8v1h-8zM98 3h7v1h-7zM98 4h5v2h-5zM98 6h3v2h-3zM99 8h1v1h-1z"/><path fill="#D8B66A" d="M103 4h2v2h-2zM101 6h6v2h-6zM103 8h2v4h-2z"/><path fill="#5F8C7E" d="M108 6h1v1h-1zM107 7h2v1h-2zM106 8h3v1h-3zM105 9h3v1h-3zM105 10h2v2h-2zM102 12h4v1h-4zM103 13h2v1h-2z"/></g><g data-icon="key"><path fill="#2E2418" d="M116 3h2v1h-2zM114 4h2v1h-2zM118 4h2v1h-2zM113 5h1v2h-1zM120 5h1v1h-1zM120 6h6v1h-6zM112 7h1v2h-1zM116 7h2v2h-2zM121 7h1v2h-1zM126 7h1v2h-1zM123 8h2v1h-2zM113 9h1v2h-1zM120 9h3v1h-3zM125 9h1v3h-1zM120 10h1v1h-1zM122 10h1v2h-1zM114 11h2v1h-2zM118 11h2v1h-2zM116 12h2v1h-2zM123 12h2v1h-2z"/><path fill="#D8B66A" d="M117 5h3v1h-3zM116 6h4v1h-4zM115 7h1v1h-1zM118 7h2v1h-2zM122 7h2v1h-2zM114 8h2v1h-2zM118 8h1v1h-1zM122 8h1v1h-1zM114 9h4v1h-4zM124 9h1v1h-1zM114 10h3v1h-3zM123 10h2v1h-2zM123 11h1v1h-1z"/><path fill="#E3C57E" d="M116 4h2v1h-2zM114 5h3v1h-3zM114 6h2v1h-2zM113 7h2v1h-2zM113 8h1v1h-1zM123 9h1v1h-1z"/><path fill="#B08F48" d="M120 7h1v1h-1zM124 7h2v1h-2zM119 8h2v1h-2zM125 8h1v1h-1zM118 9h2v1h-2zM117 10h3v1h-3zM116 11h2v1h-2zM124 11h1v1h-1z"/></g><g data-icon="cog"><path fill="#2E2418" d="M135 0h2v1h-2zM130 1h3v1h-3zM134 1h1v1h-1zM137 1h1v1h-1zM139 1h3v1h-3zM129 2h1v3h-1zM133 2h2v1h-2zM137 2h2v1h-2zM142 2h1v3h-1zM133 3h1v1h-1zM138 3h1v1h-1zM130 5h2v1h-2zM140 5h2v1h-2zM129 6h2v1h-2zM135 6h2v1h-2zM141 6h2v1h-2zM128 7h1v2h-1zM134 7h1v2h-1zM137 7h1v2h-1zM143 7h1v2h-1zM129 9h2v1h-2zM135 9h2v1h-2zM141 9h2v1h-2zM130 10h2v1h-2zM140 10h2v1h-2zM129 11h1v3h-1zM142 11h1v3h-1zM133 12h1v1h-1zM138 12h1v1h-1zM133 13h2v1h-2zM137 13h2v1h-2zM130 14h3v1h-3zM134 14h1v1h-1zM137 14h1v1h-1zM139 14h3v1h-3zM135 15h2v1h-2z"/><path fill="#C9B79A" d="M139 2h3v2h-3zM136 3h2v1h-2zM135 4h7v1h-7zM134 5h6v1h-6zM133 6h2v1h-2zM137 6h4v1h-4zM132 7h2v1h-2zM138 7h3v1h-3zM131 8h3v1h-3zM138 8h2v1h-2zM131 9h4v1h-4zM137 9h2v1h-2zM132 10h6v1h-6zM130 11h7v1h-7zM130 12h3v2h-3zM134 12h2v1h-2z"/><path fill="#E9DCC6" d="M135 1h2v2h-2zM130 2h3v2h-3zM134 3h2v1h-2zM130 4h5v1h-5zM132 5h2v1h-2zM131 6h2v1h-2zM129 7h3v1h-3zM129 8h2v1h-2z"/><path fill="#A8957A" d="M141 7h2v1h-2zM140 8h3v1h-3zM139 9h2v1h-2zM138 10h2v1h-2zM137 11h5v1h-5zM136 12h2v1h-2zM139 12h3v2h-3zM135 13h2v2h-2z"/></g><g data-icon="book"><path fill="#2E2418" d="M147 1h10v1h-10zM146 2h1v12h-1zM157 2h1v9h-1zM154 10h2v1h-2zM153 11h1v3h-1zM156 11h2v3h-2zM147 14h7v1h-7zM156 14h1v1h-1zM154 15h2v1h-2z"/><path fill="#D8B66A" d="M154 11h2v4h-2z"/><path fill="#F4EDE0" d="M149 3h8v2h-8zM149 5h1v1h-1zM155 5h2v1h-2zM149 6h8v1h-8zM149 7h1v1h-1zM155 7h2v1h-2zM149 8h8v1h-8zM149 9h1v1h-1zM154 9h3v1h-3zM149 10h5v1h-5zM156 10h1v1h-1zM149 11h4v2h-4z"/><path fill="#C25A6A" d="M147 2h7v1h-7zM147 3h2v11h-2z"/><path fill="#9E3B4B" d="M154 2h3v1h-3zM149 13h1v1h-1z"/><path fill="#A8957A" d="M150 5h5v1h-5zM150 7h5v1h-5zM150 9h4v1h-4z"/><path fill="#7B2D3B" d="M150 13h3v1h-3z"/></g><g data-icon="magnifier"><path fill="#2E2418" d="M165 0h2v1h-2zM163 1h2v1h-2zM167 1h2v1h-2zM162 2h1v1h-1zM164 2h4v1h-4zM169 2h1v1h-1zM161 3h1v1h-1zM163 3h1v1h-1zM168 3h1v1h-1zM170 3h1v1h-1zM161 4h2v1h-2zM169 4h1v4h-1zM171 4h1v4h-1zM160 5h1v2h-1zM162 5h1v2h-1zM161 7h2v1h-2zM161 8h1v1h-1zM163 8h1v1h-1zM168 8h1v1h-1zM170 8h1v1h-1zM162 9h1v1h-1zM164 9h4v1h-4zM170 9h2v1h-2zM163 10h1v1h-1zM168 10h2v1h-2zM172 10h1v1h-1zM164 11h4v1h-4zM169 11h1v1h-1zM173 11h1v1h-1zM170 12h1v1h-1zM174 12h1v2h-1zM171 13h1v1h-1zM172 14h2v1h-2z"/><path fill="#A07A52" d="M168 2h1v1h-1zM169 3h1v1h-1zM162 8h1v1h-1zM163 9h1v1h-1zM170 10h2v2h-2z"/><path fill="#7A4E2D" d="M170 4h1v4h-1zM169 8h1v1h-1zM168 9h2v1h-2zM164 10h4v1h-4zM172 11h1v1h-1zM171 12h3v1h-3zM172 13h2v1h-2z"/><path fill="#9DC1B4" d="M167 3h1v1h-1zM166 4h3v1h-3zM165 5h3v1h-3zM164 6h3v1h-3zM163 7h3v1h-3zM164 8h1v1h-1z"/><path fill="#C9DDD3" d="M164 3h3v1h-3zM163 4h3v1h-3zM163 5h2v1h-2zM163 6h1v1h-1z"/><path fill="#C8A27A" d="M165 1h2v1h-2zM163 2h1v1h-1zM162 3h1v1h-1zM161 5h1v2h-1z"/><path fill="#5F8C7E" d="M168 5h1v1h-1zM167 6h2v1h-2zM166 7h3v1h-3zM165 8h3v1h-3z"/></g><g data-icon="flask"><path fill="#2E2418" d="M182 0h4v1h-4zM181 1h1v1h-1zM186 1h1v1h-1zM181 2h6v1h-6zM181 3h1v4h-1zM186 3h1v4h-1zM180 7h1v2h-1zM187 7h1v2h-1zM179 9h1v1h-1zM188 9h1v1h-1zM178 11h1v1h-1zM189 11h1v1h-1zM179 13h10v1h-10z"/><path fill="#C9DDD3" d="M182 3h4v4h-4zM181 7h6v1h-6zM181 8h5v1h-5z"/><path fill="#C8A27A" d="M182 1h2v1h-2z"/><path fill="#A07A52" d="M184 1h1v1h-1z"/><path fill="#7A4E2D" d="M185 1h1v1h-1z"/><path fill="#6F8F55" d="M187 10h2v1h-2zM186 11h3v1h-3zM185 12h5v1h-5z"/><path fill="#B5C79C" d="M180 9h3v1h-3zM179 10h3v1h-3zM179 11h2v1h-2zM178 12h2v1h-2z"/><path fill="#8FA56E" d="M183 9h5v1h-5zM182 10h5v1h-5zM181 11h5v1h-5zM180 12h5v1h-5z"/><path fill="#9DC1B4" d="M186 8h1v1h-1z"/></g><g data-icon="watering-can"><path fill="#2E2418" d="M205 1h2v1h-2zM204 2h1v3h-1zM207 2h1v3h-1zM194 5h3v1h-3zM203 5h1v1h-1zM205 5h3v1h-3zM193 6h1v1h-1zM196 6h8v1h-8zM206 6h1v2h-1zM192 7h1v4h-1zM195 7h1v5h-1zM204 7h1v1h-1zM204 8h2v2h-2zM204 10h1v4h-1zM193 11h1v1h-1zM194 12h2v1h-2zM195 13h1v1h-1zM196 14h8v1h-8z"/><path fill="#C9DDD3" d="M204 5h1v1h-1zM196 7h5v1h-5zM196 8h4v1h-4zM196 9h3v1h-3zM196 10h2v1h-2zM196 11h1v1h-1z"/><path fill="#9DC1B4" d="M204 6h2v1h-2zM201 7h3v1h-3zM205 7h1v1h-1zM200 8h4v1h-4zM199 9h4v1h-4zM198 10h4v1h-4zM197 11h4v1h-4zM196 12h4v1h-4zM196 13h3v1h-3z"/><path fill="#E9DCC6" d="M205 2h1v1h-1zM194 6h2v1h-2zM193 7h2v1h-2zM193 8h1v1h-1z"/><path fill="#C9B79A" d="M206 2h1v1h-1zM205 3h2v1h-2zM205 4h1v1h-1zM194 8h1v1h-1zM193 9h2v2h-2zM194 11h1v1h-1z"/><path fill="#5F8C7E" d="M203 9h1v1h-1zM202 10h2v1h-2zM201 11h3v1h-3zM200 12h4v1h-4zM199 13h5v1h-5z"/><path fill="#A8957A" d="M206 4h1v1h-1z"/></g><g data-icon="heart"><path fill="#2E2418" d="M211 2h10v1h-10zM210 3h1v1h-1zM221 3h1v1h-1zM209 4h1v4h-1zM222 4h1v4h-1zM210 8h1v1h-1zM221 8h1v1h-1zM211 9h1v1h-1zM220 9h1v1h-1zM212 10h1v1h-1zM219 10h1v1h-1zM213 11h1v1h-1zM218 11h1v1h-1zM214 12h1v1h-1zM217 12h1v1h-1zM215 13h2v1h-2z"/><path fill="#9E3B4B" d="M217 3h4v1h-4zM216 4h6v1h-6zM215 5h7v1h-7zM214 6h7v1h-7zM213 7h7v1h-7zM212 8h7v1h-7zM212 9h6v1h-6zM213 10h4v1h-4zM214 11h2v1h-2z"/><path fill="#C25A6A" d="M211 3h6v1h-6zM210 4h6v1h-6zM210 5h5v1h-5zM210 6h4v1h-4zM210 7h3v1h-3zM211 8h1v1h-1z"/><path fill="#7B2D3B" d="M221 6h1v1h-1zM220 7h2v1h-2zM219 8h2v1h-2zM218 9h2v1h-2zM217 10h2v1h-2zM216 11h2v1h-2zM215 12h2v1h-2z"/></g><g data-icon="compass"><path fill="#2E2418" d="M229 1h6v1h-6zM227 2h2v1h-2zM235 2h2v1h-2zM226 3h1v2h-1zM229 3h6v1h-6zM237 3h1v2h-1zM228 4h1v1h-1zM235 4h1v1h-1zM225 5h1v6h-1zM227 5h1v6h-1zM236 5h1v6h-1zM238 5h1v6h-1zM231 7h2v2h-2zM226 11h1v2h-1zM228 11h1v1h-1zM235 11h1v1h-1zM237 11h1v2h-1zM229 12h6v1h-6zM227 13h2v1h-2zM235 13h2v1h-2zM229 14h6v1h-6z"/><path fill="#D8B66A" d="M234 2h1v1h-1zM235 3h2v1h-2zM236 4h1v1h-1zM237 5h1v1h-1zM226 10h1v1h-1zM227 11h1v1h-1zM227 12h2v1h-2zM229 13h1v1h-1z"/><path fill="#F4EDE0" d="M229 4h6v1h-6zM228 5h3v2h-3zM233 5h3v2h-3zM228 7h2v2h-2zM234 7h2v2h-2zM228 9h3v2h-3zM233 9h3v2h-3zM229 11h6v1h-6z"/><path fill="#E3C57E" d="M229 2h5v1h-5zM227 3h2v1h-2zM227 4h1v1h-1zM226 5h1v5h-1z"/><path fill="#3E5E55" d="M230 8h1v1h-1zM233 8h1v1h-1zM231 9h2v2h-2z"/><path fill="#9E3B4B" d="M231 5h2v2h-2zM230 7h1v1h-1zM233 7h1v1h-1z"/><path fill="#B08F48" d="M237 6h1v5h-1zM236 11h1v1h-1zM235 12h2v1h-2zM230 13h5v1h-5z"/></g><g data-icon="chest"><path fill="#2E2418" d="M242 3h12v1h-12zM241 4h1v10h-1zM254 4h1v10h-1zM246 6h4v1h-4zM245 7h1v4h-1zM250 7h1v4h-1zM247 8h2v1h-2zM246 11h4v1h-4zM242 14h12v1h-12z"/><path fill="#D8B66A" d="M242 7h3v2h-3zM248 7h2v1h-2zM251 7h3v2h-3zM249 8h1v1h-1zM246 9h3v1h-3zM246 10h2v1h-2z"/><path fill="#E3C57E" d="M246 7h2v1h-2zM246 8h1v1h-1z"/><path fill="#C8A27A" d="M242 4h10v1h-10zM242 5h9v1h-9zM242 6h4v1h-4zM242 9h3v3h-3zM242 12h2v1h-2zM242 13h1v1h-1z"/><path fill="#7A4E2D" d="M252 9h2v1h-2zM251 10h3v1h-3zM250 11h4v1h-4zM249 12h5v1h-5zM248 13h6v1h-6z"/><path fill="#A07A52" d="M252 4h2v1h-2zM251 5h3v1h-3zM250 6h4v1h-4zM251 9h1v1h-1zM245 11h1v1h-1zM244 12h5v1h-5zM243 13h5v1h-5z"/><path fill="#B08F48" d="M249 9h1v1h-1zM248 10h2v1h-2z"/></g><g data-icon="trophy"><path fill="#2E2418" d="M260 0h8v1h-8zM259 1h1v1h-1zM268 1h1v1h-1zM257 2h3v1h-3zM268 2h3v1h-3zM256 3h1v3h-1zM259 3h1v1h-1zM268 3h1v1h-1zM271 3h1v3h-1zM258 4h2v1h-2zM268 4h2v1h-2zM259 5h2v1h-2zM267 5h2v1h-2zM257 6h1v1h-1zM260 6h1v1h-1zM267 6h1v1h-1zM270 6h1v1h-1zM258 7h3v1h-3zM267 7h3v1h-3zM260 8h1v1h-1zM263 8h2v1h-2zM267 8h1v1h-1zM261 9h2v1h-2zM265 9h2v1h-2zM262 10h1v1h-1zM265 10h1v1h-1zM260 11h8v1h-8zM259 12h1v2h-1zM268 12h1v2h-1zM260 14h8v1h-8z"/><path fill="#E3C57E" d="M260 1h6v1h-6zM260 2h5v1h-5zM257 3h2v1h-2zM260 3h4v1h-4zM257 4h1v1h-1zM260 4h3v1h-3zM261 5h1v1h-1z"/><path fill="#D8B66A" d="M266 1h2v1h-2zM265 2h3v1h-3zM264 3h4v1h-4zM269 3h2v1h-2zM263 4h4v1h-4zM257 5h2v1h-2zM262 5h4v1h-4zM261 6h4v1h-4zM261 7h3v1h-3zM261 8h2v1h-2z"/><path fill="#B08F48" d="M267 4h1v1h-1zM270 4h1v1h-1zM266 5h1v1h-1zM269 5h2v1h-2zM258 6h2v1h-2zM265 6h2v1h-2zM268 6h2v1h-2zM264 7h3v1h-3zM265 8h2v1h-2zM263 9h2v2h-2z"/><path fill="#A07A52" d="M263 12h3v1h-3zM262 13h3v1h-3z"/><path fill="#C8A27A" d="M260 12h3v1h-3zM260 13h2v1h-2z"/><path fill="#7A4E2D" d="M266 12h2v1h-2zM265 13h3v1h-3z"/></g><g data-icon="lantern"><path fill="#2E2418" d="M278 0h3v1h-3zM277 1h1v1h-1zM281 1h1v1h-1zM276 2h1v1h-1zM278 2h3v1h-3zM282 2h1v1h-1zM276 3h8v1h-8zM275 4h1v1h-1zM284 4h1v1h-1zM275 5h10v1h-10zM275 6h1v6h-1zM284 6h1v6h-1zM275 12h10v1h-10zM275 13h1v2h-1zM284 13h1v2h-1zM276 15h8v1h-8z"/><path fill="#E9DCC6" d="M278 1h2v1h-2zM277 2h1v1h-1zM276 4h3v1h-3zM276 13h3v1h-3zM276 14h2v1h-2z"/><path fill="#C9B79A" d="M280 1h1v1h-1zM279 4h3v1h-3zM279 13h3v1h-3zM278 14h3v1h-3z"/><path fill="#A8957A" d="M281 2h1v1h-1zM282 4h2v1h-2zM282 13h2v1h-2zM281 14h3v1h-3z"/><path fill="#D8B66A" d="M281 6h3v2h-3zM281 8h2v1h-2zM281 9h1v1h-1zM277 10h1v1h-1zM276 11h3v1h-3z"/><path fill="#E3C57E" d="M276 6h3v1h-3zM280 6h1v1h-1zM276 7h2v3h-2zM276 10h1v1h-1z"/><path fill="#C25A6A" d="M279 6h1v1h-1zM278 7h3v4h-3zM279 11h1v1h-1z"/><path fill="#B08F48" d="M283 8h1v1h-1zM282 9h2v1h-2zM281 10h3v1h-3zM280 11h4v1h-4z"/></g></svg>